<?xml version="1.0" encoding="UTF-8"?>
<svg xmlns="http://www.w3.org/2000/svg" xmlns:xlink="http://www.w3.org/1999/xlink" viewBox="0 0 536.07 536.07">
  <defs>
    <style>
      .cls-1 {
        stroke: #2e3192;
      }

      .cls-1, .cls-2, .cls-3, .cls-4, .cls-5, .cls-6, .cls-7 {
        fill: none;
      }

      .cls-1, .cls-2, .cls-3, .cls-5 {
        stroke-width: 14px;
      }

      .cls-1, .cls-5, .cls-8, .cls-9, .cls-7 {
        stroke-miterlimit: 10;
      }

      .cls-2 {
        stroke: #2b3990;
      }

      .cls-2, .cls-3, .cls-5, .cls-6, .cls-10 {
        stroke-linecap: round;
      }

      .cls-2, .cls-3, .cls-6, .cls-10 {
        stroke-linejoin: round;
      }

      .cls-3, .cls-6 {
        stroke: #be1e2d;
      }

      .cls-11 {
        clip-path: url(#clippath);
      }

      .cls-4, .cls-12, .cls-13, .cls-14, .cls-15, .cls-16, .cls-17, .cls-18, .cls-19, .cls-20, .cls-21, .cls-22 {
        stroke-width: 0px;
      }

      .cls-5 {
        stroke: #f9ed32;
      }

      .cls-6 {
        stroke-width: 13px;
      }

      .cls-12 {
        fill: #ec008c;
        opacity: .16;
      }

      .cls-13 {
        opacity: .91;
      }

      .cls-13, .cls-14, .cls-20 {
        fill: #231f20;
      }

      .cls-8, .cls-10 {
        stroke-width: 8px;
      }

      .cls-8, .cls-10, .cls-7 {
        stroke: #231f20;
      }

      .cls-8, .cls-15 {
        fill: #f3f4f4;
      }

      .cls-10, .cls-21 {
        fill: #c49a6c;
      }

      .cls-9 {
        fill: #fdb825;
        stroke: #552c82;
        stroke-width: 33px;
      }

      .cls-14 {
        opacity: .6;
      }

      .cls-7 {
        stroke-width: 9px;
      }

      .cls-16 {
        fill: #2d1a0d;
      }

      .cls-17 {
        fill: #2b3990;
      }

      .cls-18 {
        fill: #2e1705;
      }

      .cls-19 {
        fill: #2e3192;
      }

      .cls-22 {
        fill: silver;
      }
    </style>
    <clipPath id="clippath">
      <path class="cls-4" d="m270.48,51.53s-125.95-9.84-140.11,118.1c0,0-.75,135.52,7.45,166.56,0,0,18.63,66.62,70.81,115.83,0,0,24.57,27.25,61.85,33.31,0,0,37.28-3.79,64.86-33.31,0,0,44.72-65.11,55.9-117.35,0,0,23.85-118.1,11.18-162.01,0,0-6.74-121.13-131.95-121.13Z"/>
    </clipPath>
  </defs>
  <g id="Layer_22" data-name="Layer 22">
    <circle class="cls-9" cx="268.03" cy="268.03" r="251.53"/>
  </g>
  <g id="inside_of_mask" data-name="inside of mask">
    <g class="cls-11">
      <g id="face_outline" data-name="face outline">
        <path class="cls-8" d="m270.72,47.55s-129.26-9.94-143.8,119.33c0,0-.76,136.93,7.65,168.29,0,0,19.12,67.32,72.67,117.04,0,0,25.21,27.54,63.48,33.66,0,0,38.26-3.82,66.57-33.66,0,0,45.9-65.79,57.37-118.57,0,0,24.48-119.33,11.47-163.7,0,0-6.91-122.39-135.41-122.39Z"/>
      </g>
      <g id="eyes_outline" data-name="eyes outline">
        <path class="cls-17" d="m364.62,294.67c-11.01,0-22.76-1.54-25.3-2.21-2.32-.62-5.16-1.13-8.16-1.67-5.07-.92-10.32-1.87-14.88-3.59l-.1-.04c-.49-.19-.99-.39-1.49-.58-3.6-1.39-7.68-2.97-11.02-5.94l-.28-.26c-1.85-1.77-4.49-5.62-2.32-12.03.94-2.84,3.09-8.76,6.79-16.14,13.34-27.4,36.21-46,62.72-50.96,6.29-1.22,15.57-2.46,23.8-1.32l.21.03c6.18,1.06,8.5,4.17,10.24,8.83l.06.17c.75,2.21,1.23,4.45,1.54,7.29v.12c1.47,15.98-2.04,31.65-5.44,45.09l-.29,1.1c-2.82,10.67-6.33,23.95-18.88,29.78l-.19.08c-3.92,1.67-10.34,2.24-17.02,2.24Zm-43.72-19.58c3.45,1.29,8.08,2.13,12.56,2.94,3.27.59,6.35,1.15,9.17,1.9,4.33,1.14,28.02,2.97,33.84.61,6.96-3.31,9.27-12.04,11.71-21.29l.28-1.04c3.11-12.31,6.35-26.67,5.1-40.6-.2-1.8-.47-3.11-.89-4.36-.07-.2-.14-.36-.2-.5-5.04-.67-11.94-.23-19.47,1.23-22.48,4.21-41.98,20.23-53.53,43.97-3.13,6.23-5,11.21-5.93,13.93,1.6.98,3.73,1.81,5.81,2.61.52.2,1.03.4,1.54.6Zm-7.71-2.05s0,0,0,0c0,0,0,0,0,0Z"/>
        <path class="cls-17" d="m202.81,290.95c-7.6,0-14.74-.58-20.78-1.83-.09-.02-.17-.04-.26-.06-11.25-2.81-18.38-18.22-22.38-30.66-5.38-16.74-10.36-47.46-.85-58.65.97-1.14,2.3-1.91,3.77-2.18,31.56-5.8,63.98,1.79,84.6,19.83,15.88,13.89,23.72,32.89,22.66,54.95-.11,2.19-1.31,4.17-3.2,5.28-13.82,8.09-40.77,13.32-63.57,13.32Zm-17.99-14.49c19.63,4,54.74-.27,71.89-8.38-.1-16.41-6.4-30.5-18.32-40.93-16.83-14.72-44.37-21.39-70.85-17.32-.91,2.45-1.75,7.29-1.32,15.33.48,9.21,2.5,19.88,5.52,29.28,4.46,13.88,9.88,21.11,13.08,22.03Zm78.29-4.42h0,0Z"/>
        <path class="cls-1" d="m346.02,217.87c-2.15-10.76-.56-25.91,5.13-35.89,1.91-3.49,8.51-7.71,13.96-9.75,14.62-5.66,25.2-3.66,38.91-14.69"/>
        <path class="cls-1" d="m391.15,123.89c-21.98,9.83-36.02,24.06-29.75,49.55"/>
        <path class="cls-2" d="m235.13,216.94s8.39-18.29-7.64-39.68c-14.75-17.79-76.44,19.61-79.19-34.42"/>
        <path class="cls-2" d="m159.58,112.1c-6.3,39.45,27.06,11.82,47.19,30.74,0,0,11.19,13.06,5.93,29.08"/>
      </g>
      <g id="eyes_skin" data-name="eyes skin">
        <path class="cls-21" d="m320.91,275.1c3.45,1.29,8.08,2.13,12.56,2.94,3.27.59,6.35,1.15,9.17,1.9,4.33,1.14,28.02,2.97,33.84.61,6.96-3.31,9.27-12.04,11.71-21.29l.28-1.04c3.11-12.31,6.35-26.67,5.1-40.6-.2-1.8-.47-3.11-.89-4.36-.07-.2-.14-.36-.2-.5-5.04-.67-11.94-.23-19.47,1.23-22.48,4.21-41.98,20.23-53.53,43.97-3.13,6.23-5,11.21-5.93,13.93,1.6.98,3.73,1.81,5.81,2.61.52.2,1.03.4,1.54.6Zm-7.71-2.05s0,0,0,0c0,0,0,0,0,0Z"/>
        <path class="cls-21" d="m184.82,276.46c19.63,4,54.74-.27,71.89-8.38-.1-16.41-6.4-30.5-18.32-40.93-16.83-14.72-44.37-21.39-70.85-17.32-.91,2.45-1.75,7.29-1.32,15.33.48,9.21,2.5,19.88,5.52,29.28,4.46,13.88,9.88,21.11,13.08,22.03Zm78.29-4.42h0,0Z"/>
      </g>
      <g id="eye_brows" data-name="eye brows">
        <path class="cls-13" d="m329.78,245.08c-.08,1.71.98,3.18,2.74,3.88,4.02,1.52,8.53-.44,12.35-1.87,3.81-1.4,7.23-2.34,11.64-3.12,9.75-1.74,20.2-3.14,29.56.19,7.35,2.29,5.55-4.32,1.41-7.21-6.86-4.53-16.72-3.64-24.7-3.45-8.47.4-17.8.5-25.46,4.35-2.93,1.56-7.09,3.5-7.53,7.1v.13Z"/>
        <path class="cls-13" d="m245.69,241.69c-3.24,5.84-16.1-1.63-21.93-3.35-5.27-1.84-10.81-3.21-16.38-3.35-9.61-.33-20.23,3.1-29.06,5.52-4.34,1.04-4.76-2.38-2.71-5.34,1.61-2.84,5.45-5.42,9.08-6.6,14.52-4.61,29.08-2.86,44.01,1.11,4.85,1.6,18.36,5.79,17.01,11.94l-.03.07Z"/>
      </g>
      <g id="eye_whites" data-name="eye whites">
        <path class="cls-15" d="m198.12,254.76c-.85-1.16.81-1.43,1.56-1.64,11.2-2.46,29.2-3.65,41.3,1.28,11.28,4.2-1.81,10.21-7.1,10.19-9.5.22-27.91-3.43-35.7-9.76l-.06-.07Z"/>
        <path class="cls-15" d="m321.42,264.42c-2.38-1.7,1.92-4.52,4.11-5.62,6.8-3.85,15.02-4.64,22.6-3.99,6.41.54,13.04.91,16.71,5.78,1.28,1.75,2.69,4.13,1.67,6.16-2.01,3.01-11.37,1.67-15.05,1.96-7.15-.08-13.12-.27-20.09-1.39-3.18-.61-7.29-1.09-9.87-2.83l-.08-.06Z"/>
      </g>
      <g id="eye_pupils" data-name="eye pupils">
        <path class="cls-18" d="m215.93,251.16s-2.09,1.85-1.7,5.46c0,0-.08,2.88,2.81,5.94l5.24,1.03,3.37.49,2.88.31,1.3.1s3.22-1.58,3.96-3.39c0,0,1.41-2.26,1.13-5.37,0,0-.03-2.21-.27-2.77l-2.45-.85-2.6-.62-2.83-.49-2.88-.3h-2.25s-4.53.06-5.72.47Z"/>
        <path class="cls-16" d="m330.49,256.77s-1.31,1.59-1.48,4.79c0,0-.44,1.57,1.59,5.63l3.3.51,2.74.37,2.17.16,1.63.12,2.58.15s1.99-.4,3.5-1.87c.98-.95,1.7-2.46,1.92-3.88,0,0,.22-2.38.06-3.99,0,0-.47-3.74-.93-3.84s-.83-.31-.83-.31h-6.9l-3.94.62-5.43,1.54Z"/>
      </g>
      <g id="eye_lashes" data-name="eye lashes">
        <path class="cls-20" d="m198.15,253.62c-.9.69-.21.12,1.53-.26,13.93-3.06,30.55-3.84,43.69,2.91,3.37,1.73,1.24.04-.76-1.44-7.79-5.76-34.03-7.47-44.39-1.26l-.08.05Z"/>
        <path class="cls-20" d="m321.07,262.25c6.62-5.68,16.66-8.1,25.39-7.43,6.73.58,14.73.94,18.94,7.15.4.45,1.24,1.94,1.41,1.94.11.02-.62-1.49-.91-1.97-3.32-6.26-11.07-7.48-17.49-8.17-9.55-1.11-23.88,3.08-27.33,8.46v.02Z"/>
      </g>
      <g id="blue_cheeck_accents" data-name="blue cheeck accents">
        <path class="cls-19" d="m140.37,307.43c3.65,7.85,7.47,14.35,11.65,19.89l.13.18.15.17c5.01,5.77,11.57,14.37,14.92,20.56l.05.09.05.09c2.76,4.74,4.08,10.12,5.48,15.82.77,3.12,1.56,6.34,2.62,9.6v.03s.02.03.02.03c.99,2.95,2.07,5.97,3.11,8.9,2.79,7.82,5.65,15.83,7.26,23.72-.16-.34-.33-.68-.49-1.01-2.52-5.51-4.92-10.09-8.39-14.5-3.43-4.61-8.58-11.31-13.79-17.26-.94-1.11-1.9-2.16-2.84-3.17-2.12-2.31-4.12-4.49-5.16-6.62l-.04-.08-.02-.04c-5.96-12.9-10.04-25.01-12.13-36.01-1.17-7-1.98-13.7-2.58-20.38m-8.68-49.84c-.15,0-.21.8-.2,2.35.03,2.71.18,6.39.3,9.35.96,21.18,1.38,39.28,4.79,59.66,2.44,12.91,7.23,25.92,12.69,37.73l.06.11c2.02,4.13,5.79,7.5,8.92,11.18,4.72,5.38,9.66,11.73,13.55,16.97,3.14,3.97,5.33,8.19,7.68,13.35,3.08,6.18,6.01,14.8,10.21,20.43.94,1.14,1.69,1.62,2.28,1.62,3.09,0,1.74-13.38,1.52-15.61-.97-14.58-7.29-29.13-11.9-42.89-2.94-9.05-3.8-18.34-8.66-26.69-3.78-6.98-10.77-16.01-15.72-21.72-7.36-9.77-12.93-22.14-17.59-35.01-2.86-8.17-4.73-16.08-6.34-24.31-.49-2.18-.9-5.11-1.48-6.44-.03-.05-.06-.08-.09-.08h0Z"/>
        <path class="cls-19" d="m351.27,420.85s6.11-22.39,10.18-30.98c0,0,5.65-14.02,10.4-22.61,0,0,6.78-13.79,16.51-28.04l-2.71,9.5-2.49,8.25-3.62,9.16-3.62,9.27-3.62,7.79-4.07,10.21-4.3,10.56-12.66,18.25v-1.36Z"/>
      </g>
      <g id="silver_cheek_mark" data-name="silver cheek mark">
        <path class="cls-22" d="m140.37,307.43c3.65,7.85,7.47,14.35,11.65,19.89l.13.18.15.17c5.01,5.77,11.57,14.37,14.92,20.56l.05.09.05.09c2.76,4.74,4.08,10.12,5.48,15.82.77,3.12,1.56,6.34,2.62,9.6v.03s.02.03.02.03c.99,2.95,2.07,5.97,3.11,8.9,2.79,7.82,5.65,15.83,7.26,23.72-.16-.34-.33-.68-.49-1.01-2.52-5.51-4.92-10.09-8.39-14.5-3.43-4.61-8.58-11.31-13.79-17.26-.94-1.11-1.9-2.16-2.84-3.17-2.12-2.31-4.12-4.49-5.16-6.62l-.04-.08-.02-.04c-5.96-12.9-10.04-25.01-12.13-36.01-1.17-7-1.98-13.7-2.58-20.38"/>
      </g>
      <g id="yellow_line" data-name="yellow line">
        <line class="cls-5" x1="294" y1="179.65" x2="289.25" y2="277.81"/>
      </g>
      <g id="red_cross" data-name="red cross">
        <polygon class="cls-6" points="275.07 71.71 301.3 95.68 328.88 71.71 301.98 53.17 275.07 71.71"/>
        <line class="cls-3" x1="299.08" y1="150.86" x2="301.3" y2="95.68"/>
        <line class="cls-3" x1="248.96" y1="71.75" x2="275.07" y2="71.71"/>
        <line class="cls-3" x1="347.24" y1="71.65" x2="328.88" y2="71.71"/>
        <polygon class="cls-3" points="299.08 139.1 284.56 148.67 296.77 162.61 311.7 150.86 299.08 139.1"/>
        <polygon class="cls-3" points="246.57 63.56 234.71 72.68 246.59 82.88 258.62 71.94 246.57 63.56"/>
        <polygon class="cls-3" points="350.79 63.56 363.22 72.89 350.66 82.88 338.06 71.73 350.79 63.56"/>
      </g>
      <g id="nose">
        <path class="cls-10" d="m289.25,305.98s-32.5.45-54.55,18.54c0,0,28.15,17.19,44.88,28.04,14.13,7.67,31.78-15.09,52.07-20.89,0,0-9.68-20.27-42.41-25.69Z"/>
      </g>
      <g id="chin">
        <path class="cls-10" d="m268.57,488.69s-62.09-21.25-69.17-49.97v-49.07s49.91-13.12,82.02-9.5c0,0,32.99,1.81,73.03,11.31l-14.62,52.07s-.68,6.99-11.45,17.94c0,0-14.29,17.28-59.8,27.23Z"/>
      </g>
      <g id="goatee">
        <path class="cls-14" d="m256.18,417.91c17.86,5.43,41.83.34,41.83.34,15.94.23,41.38-26.34,41.38-26.34l10.29,2.26-14.36,51.56c-2.83,6.22-8.25,11.65-8.25,11.65-4.64,5.15-15.94,11.42-15.94,11.42-9.05,5.2-14.25,7.01-14.25,7.01-.68.68-10.4,3.84-10.4,3.84-1.36,1.02-15.77,3.79-15.77,3.79l-1.3-.06c-.34.57-12.45-3.17-12.45-3.17-1.26.11-20.79-10.29-20.79-10.29-29.8-15.08-32.9-31.54-32.9-31.54v-45.79l12.1-2.71s3.84,12.1,17.64,19.33c13.79,7.24,23.18,8.71,23.18,8.71Z"/>
      </g>
      <g id="bottom_lip" data-name="bottom lip">
        <path class="cls-12" d="m229.09,387.22s3.18,15.3,17.4,23.53c0,0,6.77,6.67,29.49,7.09,0,0,19.49-.45,28.93-4.37,0,0,14.77-11.46,15.68-20.5v-4.44l-9.4-1.37s-8.87,12.44-13.9,13.19c0,0-23.14,2.85-34.26.17,0,0-13.13-1.99-25.61-14.66l-8.34,1.36Z"/>
      </g>
      <g id="top_lip" data-name="top lip">
        <path class="cls-12" d="m238.42,386.68c6.18.49,20,3.34,24.38,3.86,3.74.61,7.63,2.21,11.53,2.59,5.99.71,11.79-.06,17.58-1.3,3.17-.19,12.95-.43,17.33-.65,1.8-.11,2.94-3.85,2.35-3.95-9.56-1.55-29.95-3.85-41.38-4.02-4.83-.07-9.9.15-19.21.96-3.57.31-9.71,1.12-12.78,1.63-1.34.27-.8.64.09.87l.09.02Z"/>
      </g>
      <g id="teeth">
        <polygon class="cls-15" points="238.33 386.66 245.84 387.67 252.19 388.76 260.69 390.23 265.8 391.18 270.58 392.45 274.6 393.15 278.42 393.4 281.85 393.4 285.7 392.93 291.68 391.88 295.11 391.69 301.45 391.47 308.04 391.23 305.02 394.69 302.38 397.29 299.52 399.46 297.96 400.19 293.91 400.71 285.65 401.36 277.4 401.66 270.72 401.52 263.04 400.52 257.65 399.02 254.4 397.72 250.5 395.79 247.31 393.89 244.03 391.63 238.33 386.66"/>
      </g>
    </g>
  </g>
  <g id="black_outline" data-name="black outline">
    <path class="cls-7" d="m269.94,48.34s-129.26-9.94-143.8,119.33c0,0-.76,136.93,7.65,168.29,0,0,19.12,67.32,72.67,117.04,0,0,25.21,27.54,63.48,33.66,0,0,38.26-3.82,66.57-33.66,0,0,45.9-65.79,57.37-118.57,0,0,15.28-61.39,11.47-163.7,0,0-6.91-122.39-135.41-122.39Z"/>
  </g>
</svg>