<?xml version="1.0" encoding="UTF-8"?>
<svg id="Layer_1" data-name="Layer 1" xmlns="http://www.w3.org/2000/svg" xmlns:xlink="http://www.w3.org/1999/xlink" viewBox="0 0 134.01 134.01" preserveAspectRatio="xMidYMid meet">
  <defs>
    <style>
      .cls-1 {
        opacity: .91;
      }

      .cls-1, .cls-2, .cls-3, .cls-4, .cls-5, .cls-6, .cls-7, .cls-8, .cls-9, .cls-10, .cls-11, .cls-12 {
        stroke-width: 0px;
      }

      .cls-1, .cls-3, .cls-4 {
        isolation: isolate;
      }

      .cls-1, .cls-3, .cls-10 {
        fill: #231f20;
      }

      .cls-13 {
        clip-path: url(#clippath);
      }

      .cls-2, .cls-14, .cls-15, .cls-16, .cls-17, .cls-18, .cls-19 {
        fill: none;
      }

      .cls-3 {
        opacity: .6;
      }

      .cls-14 {
        stroke-width: 2.25px;
      }

      .cls-14, .cls-20, .cls-21, .cls-16, .cls-17 {
        stroke-miterlimit: 10;
      }

      .cls-14, .cls-22, .cls-21 {
        stroke: #231f20;
      }

      .cls-20 {
        fill: #fdb825;
        stroke: #552c82;
        stroke-width: 8.25px;
      }

      .cls-22, .cls-21 {
        stroke-width: 2px;
      }

      .cls-22, .cls-15, .cls-16, .cls-18, .cls-19 {
        stroke-linecap: round;
      }

      .cls-22, .cls-15, .cls-18, .cls-19 {
        stroke-linejoin: round;
      }

      .cls-22, .cls-11 {
        fill: #c49a6c;
      }

      .cls-21, .cls-5 {
        fill: #f3f4f4;
      }

      .cls-15 {
        stroke-width: 3.25px;
      }

      .cls-15, .cls-19 {
        stroke: #be1e2d;
      }

      .cls-16 {
        stroke: #f9ed32;
      }

      .cls-16, .cls-17, .cls-18, .cls-19 {
        stroke-width: 3.5px;
      }

      .cls-4 {
        fill: #ec008c;
        opacity: .16;
      }

      .cls-17 {
        stroke: #2e3192;
      }

      .cls-18 {
        stroke: #2b3990;
      }

      .cls-6 {
        fill: #2d1a0d;
      }

      .cls-7 {
        fill: #2b3990;
      }

      .cls-8 {
        fill: #2e1705;
      }

      .cls-9 {
        fill: #2e3192;
      }

      .cls-12 {
        fill: silver;
      }
    </style>
    <clipPath id="clippath">
      <path class="cls-2" d="M67.62,12.89s-31.49-2.46-35.03,29.53c0,0-.19,33.88,1.86,41.64,0,0,4.66,16.66,17.7,28.96,0,0,6.14,6.81,15.46,8.33,0,0,9.32-.95,16.22-8.33,0,0,11.18-16.28,13.98-29.34,0,0,5.96-29.53,2.8-40.5,0,0-1.68-30.28-32.99-30.28h0Z"/>
    </clipPath>
  </defs>
  <g id="Layer_22" data-name="Layer 22">
    <circle class="cls-20" cx="67.01" cy="67.01" r="62.88"/>
  </g>
  <g id="inside_of_mask" data-name="inside of mask">
    <g class="cls-13">
      <g>
        <g id="face_outline" data-name="face outline">
          <path class="cls-21" d="M67.68,11.89s-32.32-2.49-35.95,29.83c0,0-.19,34.23,1.91,42.07,0,0,4.78,16.83,18.17,29.26,0,0,6.3,6.88,15.87,8.41,0,0,9.57-.96,16.64-8.41,0,0,11.47-16.45,14.34-29.64,0,0,6.12-29.83,2.87-40.93,0,0-1.73-30.6-33.85-30.6h0Z"/>
        </g>
        <g id="eyes_outline" data-name="eyes outline">
          <path class="cls-7" d="M91.15,73.67c-2.75,0-5.69-.38-6.33-.55-.58-.15-1.29-.28-2.04-.42-1.27-.23-2.58-.47-3.72-.9h-.03c-.12-.06-.25-.11-.37-.16-.9-.35-1.92-.74-2.76-1.48l-.07-.07c-.46-.44-1.12-1.41-.58-3.01.24-.71.77-2.19,1.7-4.03,3.33-6.85,9.05-11.5,15.68-12.74,1.57-.31,3.89-.61,5.95-.33h.05c1.54.27,2.13,1.05,2.56,2.22l.02.04c.19.55.31,1.11.39,1.82v.03c.37,3.99-.51,7.91-1.36,11.27l-.07.28c-.7,2.67-1.58,5.99-4.72,7.45l-.05.02c-.98.42-2.58.56-4.26.56h.01ZM80.23,68.78c.86.32,2.02.53,3.14.74.82.15,1.59.29,2.29.47,1.08.29,7.01.74,8.46.15,1.74-.83,2.32-3.01,2.93-5.32l.07-.26c.78-3.08,1.59-6.67,1.27-10.15-.05-.45-.12-.78-.22-1.09-.02-.05-.03-.09-.05-.12-1.26-.17-2.99-.06-4.87.31-5.62,1.05-10.49,5.06-13.38,10.99-.78,1.56-1.25,2.8-1.48,3.48.4.25.93.45,1.45.65.13.05.26.1.39.15ZM78.29,68.26h0Z"/>
          <path class="cls-7" d="M50.7,72.74c-1.9,0-3.69-.15-5.19-.46-.02,0-.04,0-.06,0-2.81-.7-4.6-4.56-5.59-7.66-1.34-4.18-2.59-11.86-.21-14.66.24-.28.57-.48.94-.54,7.89-1.45,16,.45,21.15,4.96,3.97,3.47,5.93,8.22,5.66,13.74-.03.55-.33,1.04-.8,1.32-3.45,2.02-10.19,3.33-15.89,3.33v-.02ZM46.2,69.12c4.91,1,13.69-.07,17.97-2.09-.03-4.1-1.6-7.63-4.58-10.23-4.21-3.68-11.09-5.35-17.71-4.33-.23.61-.44,1.82-.33,3.83.12,2.3.62,4.97,1.38,7.32,1.11,3.47,2.47,5.28,3.27,5.51h0ZM65.78,68.01h0Z"/>
          <path class="cls-17" d="M86.5,54.47c-.54-2.69-.14-6.48,1.28-8.97.48-.87,2.13-1.93,3.49-2.44,3.66-1.41,6.3-.92,9.73-3.67"/>
          <path class="cls-17" d="M97.79,30.97c-5.49,2.46-9.01,6.02-7.44,12.39"/>
          <path class="cls-18" d="M58.78,54.24s2.1-4.57-1.91-9.92c-3.69-4.45-19.11,4.9-19.8-8.6"/>
          <path class="cls-18" d="M39.89,28.03c-1.57,9.86,6.76,2.96,11.8,7.68,0,0,2.8,3.27,1.48,7.27"/>
        </g>
        <g id="eyes_skin" data-name="eyes skin">
          <path class="cls-11" d="M80.23,68.78c.86.32,2.02.53,3.14.74.82.15,1.59.29,2.29.47,1.08.29,7.01.74,8.46.15,1.74-.83,2.32-3.01,2.93-5.32l.07-.26c.78-3.08,1.59-6.67,1.27-10.15-.05-.45-.12-.78-.22-1.09-.02-.05-.03-.09-.05-.12-1.26-.17-2.99-.06-4.87.31-5.62,1.05-10.49,5.06-13.38,10.99-.78,1.56-1.25,2.8-1.48,3.48.4.25.93.45,1.45.65.13.05.26.1.39.15ZM78.29,68.26h0Z"/>
          <path class="cls-11" d="M46.2,69.12c4.91,1,13.69-.07,17.97-2.09-.03-4.1-1.6-7.63-4.58-10.23-4.21-3.68-11.09-5.35-17.71-4.33-.23.61-.44,1.82-.33,3.83.12,2.3.62,4.97,1.38,7.32,1.11,3.47,2.47,5.28,3.27,5.51h0ZM65.78,68.01h0Z"/>
        </g>
        <g id="eye_brows" data-name="eye brows">
          <path class="cls-1" d="M82.43,61.27c-.02.43.24.8.68.97,1.01.38,2.13-.11,3.09-.47.95-.35,1.81-.58,2.91-.78,2.44-.44,5.05-.79,7.39.05,1.84.57,1.39-1.08.35-1.8-1.71-1.13-4.18-.91-6.18-.86-2.12.1-4.45.12-6.37,1.09-.73.39-1.77.88-1.88,1.77v.03h0Z"/>
          <path class="cls-1" d="M61.42,60.42c-.81,1.46-4.02-.41-5.48-.84-1.32-.46-2.7-.8-4.09-.84-2.4-.08-5.06.77-7.26,1.38-1.09.26-1.19-.6-.68-1.34.4-.71,1.36-1.35,2.27-1.65,3.63-1.15,7.27-.72,11,.28,1.21.4,4.59,1.45,4.25,2.99v.02h-.01Z"/>
        </g>
        <g id="eye_whites" data-name="eye whites">
          <path class="cls-5" d="M49.53,63.69c-.21-.29.2-.36.39-.41,2.8-.62,7.3-.91,10.32.32,2.82,1.05-.45,2.55-1.77,2.55-2.38.06-6.98-.86-8.93-2.44v-.02h0Z"/>
          <path class="cls-5" d="M80.35,66.11c-.59-.42.48-1.13,1.03-1.4,1.7-.96,3.76-1.16,5.65-1,1.6.13,3.26.23,4.18,1.45.32.44.67,1.03.42,1.54-.5.75-2.84.42-3.76.49-1.79-.02-3.28-.07-5.02-.35-.8-.15-1.82-.27-2.47-.71l-.02-.02h0Z"/>
        </g>
        <g id="eye_pupils" data-name="eye pupils">
          <path class="cls-8" d="M53.98,62.79s-.52.46-.42,1.37c0,0-.02.72.7,1.48l1.31.26.84.12.72.08.33.02s.81-.4.99-.85c0,0,.35-.57.28-1.34,0,0,0-.55-.07-.69l-.61-.21-.65-.16-.71-.12-.72-.07h-.56s-1.13,0-1.43.12h0Z"/>
          <path class="cls-6" d="M82.62,64.19s-.33.4-.37,1.2c0,0-.11.39.4,1.41l.82.13.68.09.54.04.41.03.65.04s.5-.1.88-.47c.24-.24.42-.61.48-.97,0,0,.05-.6,0-1,0,0-.12-.94-.23-.96s-.21-.08-.21-.08h-1.72l-.98.15-1.36.38h0Z"/>
        </g>
        <g id="eye_lashes" data-name="eye lashes">
          <path class="cls-10" d="M49.54,63.41c-.22.17-.05.03.38-.07,3.48-.77,7.64-.96,10.92.73.84.43.31,0-.19-.36-1.95-1.44-8.51-1.87-11.1-.31h-.02.01Z"/>
          <path class="cls-10" d="M80.26,65.56c1.65-1.42,4.17-2.02,6.35-1.86,1.68.14,3.68.24,4.74,1.79.1.11.31.49.35.49.03,0-.15-.37-.23-.49-.83-1.57-2.77-1.87-4.37-2.04-2.39-.28-5.97.77-6.83,2.12h-.01Z"/>
        </g>
        <g id="blue_cheeck_accents" data-name="blue cheeck accents">
          <path class="cls-9" d="M35.09,76.86c.91,1.96,1.87,3.59,2.91,4.97l.03.04.04.04c1.25,1.44,2.89,3.59,3.73,5.14v.02l.02.02c.69,1.18,1.02,2.53,1.37,3.96.19.78.39,1.59.65,2.4h0c.25.75.52,1.5.78,2.23.7,1.95,1.41,3.96,1.81,5.93-.04-.08-.08-.17-.12-.25-.63-1.38-1.23-2.52-2.1-3.63-.86-1.15-2.14-2.83-3.45-4.31-.23-.28-.48-.54-.71-.79-.53-.58-1.03-1.12-1.29-1.66v-.02h0c-1.49-3.24-2.51-6.26-3.03-9.01-.29-1.75-.5-3.42-.64-5.09M32.92,64.4s-.05.2-.05.59c0,.68.04,1.6.07,2.34.24,5.29.34,9.82,1.2,14.92.61,3.23,1.81,6.48,3.17,9.43v.03c.52,1.03,1.46,1.87,2.24,2.8,1.18,1.35,2.42,2.93,3.39,4.24.78.99,1.33,2.05,1.92,3.34.77,1.55,1.5,3.7,2.55,5.11.24.28.42.4.57.4.77,0,.43-3.35.38-3.9-.24-3.65-1.82-7.28-2.97-10.72-.73-2.26-.95-4.59-2.17-6.67-.95-1.75-2.69-4-3.93-5.43-1.84-2.44-3.23-5.54-4.4-8.75-.72-2.04-1.18-4.02-1.59-6.08-.12-.54-.22-1.28-.37-1.61,0,0-.02-.02-.02-.02h0v-.02Z"/>
          <path class="cls-9" d="M87.82,105.21s1.53-5.6,2.54-7.74c0,0,1.41-3.5,2.6-5.65,0,0,1.7-3.45,4.13-7.01l-.68,2.37-.62,2.06-.9,2.29-.9,2.32-.9,1.95-1.02,2.55-1.07,2.64-3.17,4.56v-.34h-.01Z"/>
        </g>
        <g id="silver_cheek_mark" data-name="silver cheek mark">
          <path class="cls-12" d="M35.09,76.86c.91,1.96,1.87,3.59,2.91,4.97l.03.04.04.04c1.25,1.44,2.89,3.59,3.73,5.14v.02l.02.02c.69,1.18,1.02,2.53,1.37,3.96.19.78.39,1.59.65,2.4h0c.25.75.52,1.5.78,2.23.7,1.95,1.41,3.96,1.81,5.93-.04-.08-.08-.17-.12-.25-.63-1.38-1.23-2.52-2.1-3.63-.86-1.15-2.14-2.83-3.45-4.31-.23-.28-.48-.54-.71-.79-.53-.58-1.03-1.12-1.29-1.66v-.02h0c-1.49-3.24-2.51-6.26-3.03-9.01-.29-1.75-.5-3.42-.64-5.09"/>
        </g>
        <g id="yellow_line" data-name="yellow line">
          <line class="cls-16" x1="73.5" y1="44.91" x2="72.31" y2="69.45"/>
        </g>
        <g id="red_cross" data-name="red cross">
          <polygon class="cls-15" points="68.76 17.93 75.32 23.92 82.22 17.93 75.49 13.29 68.76 17.93"/>
          <line class="cls-19" x1="74.76" y1="37.72" x2="75.32" y2="23.92"/>
          <line class="cls-19" x1="62.24" y1="17.94" x2="68.76" y2="17.93"/>
          <line class="cls-19" x1="86.81" y1="17.91" x2="82.22" y2="17.93"/>
          <polygon class="cls-19" points="74.76 34.78 71.14 37.17 74.18 40.66 77.92 37.72 74.76 34.78"/>
          <polygon class="cls-19" points="61.64 15.89 58.68 18.17 61.65 20.72 64.65 17.99 61.64 15.89"/>
          <polygon class="cls-19" points="87.7 15.89 90.79 18.22 87.65 20.72 84.51 17.93 87.7 15.89"/>
        </g>
        <g id="nose">
          <path class="cls-22" d="M72.31,76.5s-8.12.11-13.64,4.64c0,0,7.04,4.3,11.22,7.01,3.53,1.92,7.95-3.77,13.02-5.22,0,0-2.42-5.07-10.6-6.42h0Z"/>
        </g>
        <g id="chin">
          <path class="cls-22" d="M67.14,122.17s-15.52-5.31-17.29-12.49v-12.27s12.48-3.28,20.5-2.37c0,0,8.25.45,18.26,2.83l-3.65,13.02s-.17,1.75-2.86,4.48c0,0-3.57,4.32-14.95,6.81h0Z"/>
        </g>
        <g id="goatee">
          <path class="cls-3" d="M64.04,104.48c4.47,1.36,10.46.08,10.46.08,3.99.06,10.35-6.59,10.35-6.59l2.57.57-3.59,12.89c-.71,1.55-2.06,2.91-2.06,2.91-1.16,1.29-3.99,2.85-3.99,2.85-2.26,1.3-3.56,1.75-3.56,1.75-.17.17-2.6.96-2.6.96-.34.25-3.94.95-3.94.95h-.33c-.08.13-3.11-.81-3.11-.81-.31.03-5.2-2.57-5.2-2.57-7.45-3.77-8.23-7.89-8.23-7.89v-11.45l3.02-.68s.96,3.02,4.41,4.83,5.79,2.18,5.79,2.18v.02Z"/>
        </g>
        <g id="bottom_lip" data-name="bottom lip">
          <path class="cls-4" d="M57.26,96.81s.8,3.82,4.35,5.88c0,0,1.69,1.67,7.37,1.77,0,0,4.87-.11,7.23-1.09,0,0,3.69-2.86,3.92-5.13v-1.11l-2.35-.34s-2.22,3.11-3.47,3.3c0,0-5.79.71-8.56.04,0,0-3.28-.5-6.4-3.66l-2.09.34Z"/>
        </g>
        <g id="top_lip" data-name="top lip">
          <path class="cls-4" d="M59.6,96.67c1.54.12,5,.84,6.1.96.94.15,1.91.55,2.88.65,1.5.18,2.95-.01,4.4-.32.79-.05,3.24-.11,4.33-.16.45-.03.74-.96.59-.99-2.39-.39-7.49-.96-10.35-1.01-1.21-.02-2.47.04-4.8.24-.89.08-2.43.28-3.19.41-.33.07-.2.16.02.22h.02Z"/>
        </g>
        <g id="teeth">
          <polygon class="cls-5" points="59.58 96.67 61.46 96.92 63.04 97.18 65.17 97.56 66.45 97.8 67.64 98.12 68.65 98.29 69.6 98.35 70.46 98.35 71.42 98.23 72.92 97.97 73.78 97.92 75.36 97.87 77.01 97.81 76.25 98.67 75.59 99.32 74.88 99.87 74.49 100.05 73.48 100.18 71.4 100.34 69.35 100.42 67.68 100.38 65.76 100.12 64.4 99.76 63.6 99.43 62.62 98.95 61.83 98.48 61.01 97.9 59.58 96.67"/>
        </g>
      </g>
    </g>
  </g>
  <g id="black_outline" data-name="black outline">
    <path class="cls-14" d="M67.48,12.09s-32.32-2.49-35.95,29.83c0,0-.19,34.23,1.91,42.07,0,0,4.78,16.83,18.17,29.26,0,0,6.3,6.88,15.87,8.41,0,0,9.57-.96,16.64-8.41,0,0,11.47-16.45,14.34-29.64,0,0,3.82-15.35,2.87-40.93,0,0-1.73-30.6-33.85-30.6h0Z"/>
  </g>
</svg>
