<?xml version="1.0" encoding="UTF-8"?>
<svg id="Layer_1" data-name="Layer 1" xmlns="http://www.w3.org/2000/svg" xmlns:xlink="http://www.w3.org/1999/xlink" viewBox="0 0 80.43 80.43">
  <defs>
    <style>
      .cls-1 {
        fill: #fdb825;
        stroke: #552c82;
        stroke-width: 4.95px;
      }

      .cls-1, .cls-2, .cls-3, .cls-4, .cls-5 {
        stroke-miterlimit: 10;
      }

      .cls-6 {
        opacity: .91;
      }

      .cls-6, .cls-7, .cls-8, .cls-9, .cls-10, .cls-11, .cls-12, .cls-13, .cls-14, .cls-15, .cls-16, .cls-17 {
        stroke-width: 0px;
      }

      .cls-6, .cls-8, .cls-9 {
        isolation: isolate;
      }

      .cls-6, .cls-8, .cls-15 {
        fill: #231f20;
      }

      .cls-18 {
        clip-path: url(#clippath);
      }

      .cls-7, .cls-3, .cls-4, .cls-19, .cls-5, .cls-20, .cls-21 {
        fill: none;
      }

      .cls-8 {
        opacity: .6;
      }

      .cls-2, .cls-22 {
        stroke-width: 1.2px;
      }

      .cls-2, .cls-22, .cls-5 {
        stroke: #231f20;
      }

      .cls-2, .cls-10 {
        fill: #f3f4f4;
      }

      .cls-22, .cls-4, .cls-19, .cls-20, .cls-21 {
        stroke-linecap: round;
      }

      .cls-22, .cls-19, .cls-20, .cls-21 {
        stroke-linejoin: round;
      }

      .cls-22, .cls-16 {
        fill: #c49a6c;
      }

      .cls-3 {
        stroke: #2e3192;
      }

      .cls-3, .cls-4, .cls-20, .cls-21 {
        stroke-width: 2.1px;
      }

      .cls-4 {
        stroke: #f9ed32;
      }

      .cls-9 {
        fill: #ec008c;
        opacity: .16;
      }

      .cls-19 {
        stroke-width: 1.95px;
      }

      .cls-19, .cls-21 {
        stroke: #be1e2d;
      }

      .cls-5 {
        stroke-width: 1.35px;
      }

      .cls-11 {
        fill: #2d1a0d;
      }

      .cls-12 {
        fill: #2b3990;
      }

      .cls-13 {
        fill: #2e1705;
      }

      .cls-14 {
        fill: #2e3192;
      }

      .cls-17 {
        fill: silver;
      }

      .cls-20 {
        stroke: #2b3990;
      }
    </style>
    <clipPath id="clippath">
      <path class="cls-7" d="M40.58,7.76s-18.9-1.5-21,17.7c0,0-.12,20.34,1.14,24.96,0,0,2.82,10.02,10.62,17.4,0,0,3.66,4.08,9.3,4.98,0,0,5.58-.6,9.72-4.98,0,0,6.72-9.78,8.4-17.58,0,0,3.6-17.7,1.68-24.3-.06,0-1.08-18.18-19.86-18.18h0Z"/>
    </clipPath>
  </defs>
  <g id="Layer_22" data-name="Layer 22">
    <circle class="cls-1" cx="40.21" cy="40.22" r="37.74"/>
  </g>
  <g id="inside_of_mask" data-name="inside of mask">
    <g class="cls-18">
      <g>
        <g id="face_outline" data-name="face outline">
          <path class="cls-2" d="M40.63,7.16s-19.38-1.5-21.54,17.88c0,0-.12,20.52,1.14,25.26,0,0,2.88,10.08,10.92,17.58,0,0,3.78,4.14,9.54,5.04,0,0,5.76-.6,9.96-5.04,0,0,6.9-9.9,8.58-17.76,0,0,3.66-17.88,1.74-24.54-.06-.06-1.08-18.42-20.34-18.42h0Z"/>
        </g>
        <g id="eyes_outline" data-name="eyes outline">
          <path class="cls-12" d="M54.73,44.24c-1.68,0-3.42-.24-3.78-.36-.36-.06-.78-.18-1.2-.24-.78-.12-1.56-.3-2.22-.54h0c-.06-.06-.12-.06-.24-.12-.54-.24-1.14-.42-1.68-.9l-.06-.06c-.3-.24-.66-.84-.36-1.8.12-.42.48-1.32,1.02-2.4,1.98-4.14,5.46-6.9,9.42-7.62.96-.18,2.34-.36,3.54-.18h.06c.9.18,1.26.66,1.56,1.32h0c.12.36.18.66.24,1.08h0c.24,2.4-.3,4.74-.84,6.78l-.06.18c-.42,1.62-.96,3.6-2.82,4.44h-.06c-.6.3-1.56.42-2.52.42h0ZM48.13,41.3c.54.18,1.2.3,1.86.42.48.06.96.18,1.38.3.66.18,4.2.42,5.1.06,1.02-.48,1.38-1.8,1.74-3.18l.06-.18c.48-1.86.96-4.02.78-6.06-.06-.24-.06-.48-.12-.66q0-.06-.06-.06c-.78-.12-1.8-.06-2.94.18-3.36.66-6.3,3.06-8.04,6.6-.48.96-.72,1.68-.9,2.1.24.12.54.24.84.36.18.06.24.06.3.12ZM47,41h0Z"/>
          <path class="cls-12" d="M30.44,43.7c-1.14,0-2.22-.06-3.12-.3h-.06c-1.68-.42-2.76-2.76-3.36-4.62-.78-2.52-1.5-7.08-.06-8.76.12-.18.36-.3.54-.3,4.74-.84,9.6.24,12.66,3,2.4,2.1,3.54,4.92,3.42,8.22,0,.36-.18.6-.48.78-2.04,1.2-6.12,1.98-9.54,1.98h0ZM27.74,41.48c2.94.6,8.22-.06,10.8-1.26,0-2.46-.96-4.56-2.76-6.12-2.52-2.22-6.66-3.24-10.62-2.58-.12.36-.24,1.08-.18,2.28.06,1.38.36,3,.84,4.38.6,2.1,1.44,3.18,1.92,3.3h0ZM39.5,40.82h0Z"/>
          <path class="cls-3" d="M51.92,32.72c-.3-1.62-.06-3.9.78-5.4.3-.54,1.26-1.14,2.1-1.44,2.22-.84,3.78-.54,5.82-2.22"/>
          <path class="cls-3" d="M58.7,18.62c-3.3,1.5-5.4,3.6-4.44,7.44"/>
          <path class="cls-20" d="M35.3,32.6s1.26-2.76-1.14-5.94c-2.22-2.64-11.46,2.94-11.88-5.16"/>
          <path class="cls-20" d="M23.96,16.82c-.96,5.94,4.08,1.8,7.08,4.62,0,0,1.68,1.98.9,4.38"/>
        </g>
        <g id="eyes_skin" data-name="eyes skin">
          <path class="cls-16" d="M48.13,41.3c.54.18,1.2.3,1.86.42.48.06.96.18,1.38.3.66.18,4.2.42,5.1.06,1.02-.48,1.38-1.8,1.74-3.18l.06-.18c.48-1.86.96-4.02.78-6.06-.06-.24-.06-.48-.12-.66q0-.06-.06-.06c-.78-.12-1.8-.06-2.94.18-3.36.66-6.3,3.06-8.04,6.6-.48.96-.72,1.68-.9,2.1.24.12.54.24.84.36.18.06.24.06.3.12ZM47,41h0Z"/>
          <path class="cls-16" d="M27.74,41.48c2.94.6,8.22-.06,10.8-1.26,0-2.46-.96-4.56-2.76-6.12-2.52-2.22-6.66-3.24-10.62-2.58-.12.36-.24,1.08-.18,2.28.06,1.38.36,3,.84,4.38.6,2.1,1.44,3.18,1.92,3.3h0ZM39.5,40.82h0Z"/>
        </g>
        <g id="eye_brows" data-name="eye brows">
          <path class="cls-6" d="M49.46,36.8c0,.24.12.48.42.6.6.24,1.26-.06,1.86-.3.54-.24,1.08-.36,1.74-.48,1.44-.24,3.06-.48,4.44.06,1.08.36.84-.66.24-1.08-1.02-.66-2.52-.54-3.72-.54-1.26.06-2.64.06-3.84.66-.42.24-1.08.54-1.14,1.08h0Z"/>
          <path class="cls-6" d="M36.86,36.26c-.48.9-2.4-.24-3.3-.48-.78-.3-1.62-.48-2.46-.48-1.44-.06-3.06.48-4.38.84-.66.18-.72-.36-.42-.78.24-.42.84-.84,1.38-.96,2.16-.66,4.38-.42,6.6.18.78.12,2.82.78,2.58,1.68h0Z"/>
        </g>
        <g id="eye_whites" data-name="eye whites">
          <path class="cls-10" d="M29.72,38.24c-.12-.18.12-.24.24-.24,1.68-.36,4.38-.54,6.18.18,1.68.66-.24,1.56-1.08,1.56-1.38,0-4.14-.54-5.34-1.5h0Z"/>
          <path class="cls-10" d="M48.26,39.68c-.36-.24.3-.66.6-.84,1.02-.6,2.28-.72,3.36-.6.96.06,1.98.12,2.52.84.18.24.42.6.24.9-.3.48-1.68.24-2.28.3-1.08,0-1.98-.06-3-.24-.42,0-1.08-.06-1.44-.36h0Z"/>
        </g>
        <g id="eye_pupils" data-name="eye pupils">
          <path class="cls-13" d="M32.42,37.7s-.3.3-.24.84c0,0,0,.42.42.9l.78.18.48.06.42.06h.18s.48-.24.6-.54c0,0,.24-.36.18-.78,0,0,0-.36-.06-.42l-.36-.12-.36-.12-.42-.06-.42-.06h-.36s-.66,0-.84.06h0Z"/>
          <path class="cls-11" d="M49.57,38.54s-.18.24-.24.72c0,0-.06.24.24.84l.48.06.42.06h.9s.3-.06.54-.3c.12-.12.24-.36.3-.6,0,0,.06-.36,0-.6,0,0-.06-.54-.12-.6s-.12-.06-.12-.06h-1.02l-.6.06-.78.42h0Z"/>
        </g>
        <g id="eye_lashes" data-name="eye lashes">
          <path class="cls-15" d="M29.72,38.06c-.12.12-.06,0,.24-.06,2.1-.48,4.56-.6,6.54.42.48.24.18,0-.12-.24-1.14-.78-5.1-1.02-6.66-.12h0Z"/>
          <path class="cls-15" d="M48.2,39.38c.96-.84,2.52-1.2,3.84-1.14,1.02.06,2.22.12,2.82,1.08.06.06.18.3.24.3,0,0-.06-.24-.12-.3-.48-.96-1.68-1.14-2.64-1.2-1.5-.18-3.66.42-4.14,1.26h0Z"/>
        </g>
        <g id="blue_cheeck_accents" data-name="blue cheeck accents">
          <path class="cls-14" d="M21.08,46.16c.54,1.2,1.14,2.16,1.74,3h0c.72.84,1.74,2.16,2.22,3.06h0c.42.72.6,1.5.84,2.4.12.48.24.96.36,1.44h0c.12.42.3.9.48,1.32.42,1.2.84,2.4,1.08,3.54,0-.06-.06-.12-.06-.12-.36-.84-.72-1.5-1.26-2.16-.54-.66-1.26-1.68-2.04-2.58-.12-.18-.3-.3-.42-.48-.3-.36-.6-.66-.78-1.02h0c-.9-1.92-1.5-3.72-1.8-5.4-.18-1.02-.3-2.04-.36-3M19.76,38.66s-.06.12-.06.36c0,.42,0,.96.06,1.38.12,3.18.18,5.88.72,8.94.36,1.92,1.08,3.9,1.92,5.64h0c.3.6.9,1.14,1.32,1.68.72.84,1.44,1.74,2.04,2.52.48.6.78,1.2,1.14,1.98.48.9.9,2.22,1.56,3.06.12.18.24.24.36.24.48,0,.24-2.04.24-2.34-.12-2.16-1.08-4.38-1.8-6.42-.42-1.38-.54-2.76-1.32-4.02-.54-1.08-1.62-2.4-2.34-3.24-1.08-1.44-1.92-3.3-2.64-5.28-.42-1.2-.72-2.4-.96-3.66-.06-.18-.12-.6-.24-.84h0Z"/>
          <path class="cls-14" d="M52.7,63.14s.9-3.36,1.5-4.62c0,0,.84-2.1,1.56-3.36,0,0,1.02-2.1,2.46-4.2l-.42,1.44-.36,1.26-.54,1.38-.54,1.38-.54,1.2-.6,1.5-.66,1.56-1.92,2.76.06-.3h0Z"/>
        </g>
        <g id="silver_cheek_mark" data-name="silver cheek mark">
          <path class="cls-17" d="M21.08,46.16c.54,1.2,1.14,2.16,1.74,3h0c.72.84,1.74,2.16,2.22,3.06h0c.42.72.6,1.5.84,2.4.12.48.24.96.36,1.44h0c.12.42.3.9.48,1.32.42,1.2.84,2.4,1.08,3.54,0-.06-.06-.12-.06-.12-.36-.84-.72-1.5-1.26-2.16-.54-.66-1.26-1.68-2.04-2.58-.12-.18-.3-.3-.42-.48-.3-.36-.6-.66-.78-1.02h0c-.9-1.92-1.5-3.72-1.8-5.4-.18-1.02-.3-2.04-.36-3"/>
        </g>
        <g id="yellow_line" data-name="yellow line">
          <line class="cls-4" x1="44.12" y1="26.96" x2="43.4" y2="41.72"/>
        </g>
        <g id="red_cross" data-name="red cross">
          <polygon class="cls-19" points="41.3 10.76 45.2 14.36 49.33 10.76 45.32 8 41.3 10.76"/>
          <line class="cls-21" x1="44.9" y1="22.64" x2="45.2" y2="14.36"/>
          <line class="cls-21" x1="37.34" y1="10.82" x2="41.3" y2="10.76"/>
          <line class="cls-21" x1="52.1" y1="10.76" x2="49.33" y2="10.76"/>
          <polygon class="cls-21" points="44.9 20.9 42.68 22.34 44.53 24.44 46.76 22.64 44.9 20.9"/>
          <polygon class="cls-21" points="36.98 9.56 35.24 10.94 37.04 12.44 38.83 10.82 36.98 9.56"/>
          <polygon class="cls-21" points="52.63 9.56 54.5 10.94 52.63 12.44 50.72 10.76 52.63 9.56"/>
        </g>
        <g id="nose">
          <path class="cls-22" d="M43.4,45.92s-4.86.06-8.16,2.76c0,0,4.2,2.58,6.72,4.2,2.1,1.14,4.74-2.28,7.8-3.12,0,0-1.44-3-6.36-3.84h0Z"/>
        </g>
        <g id="chin">
          <path class="cls-22" d="M40.28,73.34s-9.3-3.18-10.38-7.5v-7.38s7.5-1.98,12.3-1.44c0,0,4.92.3,10.98,1.68l-2.16,7.8s-.12,1.08-1.74,2.7c0,.06-2.16,2.64-9,4.14h0Z"/>
        </g>
        <g id="goatee">
          <path class="cls-8" d="M38.48,62.72c2.7.84,6.3.06,6.3.06,2.4.06,6.24-3.96,6.24-3.96l1.56.36-2.28,7.68c-.42.9-1.26,1.74-1.26,1.74-.72.78-2.4,1.74-2.4,1.74-1.38.78-2.16,1.08-2.16,1.08-.12.12-1.56.6-1.56.6-.18.12-2.34.6-2.34.6h-.18c-.06.06-1.86-.48-1.86-.48-.18,0-3.12-1.56-3.12-1.56-4.44-2.28-4.92-4.74-4.92-4.74v-6.96l1.8-.42s.6,1.8,2.64,2.88,3.48,1.38,3.54,1.38h0Z"/>
        </g>
        <g id="bottom_lip" data-name="bottom lip">
          <path class="cls-9" d="M34.4,58.1s.48,2.28,2.64,3.54c0,0,1.02,1.02,4.44,1.08,0,0,2.94-.06,4.32-.66,0,0,2.22-1.74,2.34-3.06v-.66l-1.44-.18s-1.32,1.86-2.1,1.98c0,0-3.48.42-5.16,0,0,0-1.98-.3-3.84-2.22l-1.2.18Z"/>
        </g>
        <g id="top_lip" data-name="top lip">
          <path class="cls-9" d="M35.78,58.04c.9.06,3,.48,3.66.6.54.06,1.14.3,1.74.36.9.12,1.74,0,2.64-.18.48,0,1.92-.06,2.58-.12.24,0,.42-.6.36-.6-1.44-.24-4.5-.6-6.24-.6-.72,0-1.5,0-2.88.12-.54.06-1.44.18-1.92.24-.18.06-.06.12.06.18h0Z"/>
        </g>
        <g id="teeth">
          <polygon class="cls-10" points="35.78 58.04 36.92 58.16 37.88 58.34 39.13 58.58 39.92 58.7 40.58 58.88 41.23 59 41.78 59.06 42.32 59.06 42.86 58.94 43.76 58.82 44.3 58.76 45.26 58.76 46.22 58.7 45.8 59.24 45.38 59.6 44.96 59.96 44.72 60.08 44.12 60.14 42.86 60.26 41.66 60.26 40.63 60.26 39.5 60.08 38.66 59.9 38.18 59.66 37.58 59.42 37.1 59.12 36.62 58.76 35.78 58.04"/>
        </g>
      </g>
    </g>
  </g>
  <g id="black_outline" data-name="black outline">
    <path class="cls-5" d="M40.52,7.28s-19.38-1.5-21.54,17.88c0,0-.12,20.52,1.14,25.26,0,0,2.88,10.08,10.92,17.58,0,0,3.78,4.14,9.54,5.04,0,0,5.76-.6,9.96-5.04,0,0,6.9-9.9,8.58-17.76,0,0,2.28-9.24,1.74-24.54-.06-.06-1.08-18.42-20.34-18.42h0Z"/>
  </g>
</svg>